<?xml version="1.0" encoding="utf-8"?>
<!-- Generator: Adobe Illustrator 15.0.2, SVG Export Plug-In . SVG Version: 6.00 Build 0)  -->
<!DOCTYPE svg PUBLIC "-//W3C//DTD SVG 1.1//EN" "http://www.w3.org/Graphics/SVG/1.1/DTD/svg11.dtd">
<svg version="1.1" id="Layer_1" xmlns="http://www.w3.org/2000/svg" xmlns:xlink="http://www.w3.org/1999/xlink" x="0px" y="0px"
	 width="123.816px" height="44.348px" viewBox="0 0 123.816 44.348" enable-background="new 0 0 123.816 44.348"
	 xml:space="preserve">
<path fill="#FFFFFF" d="M59.095,27.728c-1.68,0-2.729-1.139-2.729-2.548c0-1.5,1.079-2.581,2.76-2.581
	c1.68,0,2.729,1.081,2.76,2.581c0,1.409-1.08,2.548-2.76,2.548H59.095z M56.395,29.259h5.431v14.76h-5.431V29.259z"/>
<path fill="#FFFFFF" d="M18.359,43.087c-1.529,0.511-4.35,1.141-6.989,1.141c-3.96,0-6.659-0.99-8.489-2.729
	c-1.892-1.8-2.88-4.41-2.88-7.29c0.028-7.05,5.278-10.619,11.818-10.619c2.73,0,4.801,0.479,5.851,0.989l-1.08,4.351
	c-1.14-0.511-2.521-0.871-4.8-0.871c-3.33,0-6.09,1.74-6.09,5.852c0,3.779,2.43,5.97,5.729,5.97c0.75,0,1.44-0.062,1.71-0.18v-3.48
	h-2.7V32.02h7.92V43.087L18.359,43.087z"/>
<rect x="20.747" y="22.688" fill="#FFFFFF" width="5.43" height="21.329"/>
<path fill="#FFFFFF" d="M41.639,40.418c0,1.47,0.09,2.85,0.24,3.6h-4.891l-0.27-1.29h-0.12c-1.02,1.17-2.49,1.62-4.08,1.62
	c-3.028,0-4.89-2.189-4.89-4.648c0-3.962,3.57-5.73,8.58-5.73V33.85c0-0.601-0.45-1.261-2.431-1.261c-1.56,0-3.18,0.54-4.17,1.08
	l-0.929-3.391c0.929-0.51,3.059-1.35,6.119-1.35c5.07,0,6.84,2.819,6.84,6.51V40.418z M36.389,37.269c-2.22,0-3.45,0.601-3.45,1.92
	c0,0.931,0.601,1.409,1.53,1.409c0.78,0,1.59-0.54,1.86-1.35c0.06-0.24,0.06-0.512,0.06-0.78V37.269z"/>
<path fill="#FFFFFF" d="M43.993,39.458c0.84,0.51,2.76,1.108,4.079,1.108c1.171,0,1.62-0.239,1.62-0.81c0-0.54-0.33-0.75-1.92-1.26
	c-3.27-1.021-4.38-2.79-4.35-4.5c0-2.94,2.52-5.069,6.42-5.069c1.8,0,3.42,0.42,4.379,0.84l-0.869,3.66
	c-0.689-0.33-2.069-0.811-3.27-0.811c-0.931,0-1.471,0.239-1.471,0.84c0,0.479,0.48,0.778,2.221,1.35
	c2.91,0.93,4.02,2.461,4.05,4.562c0,2.817-2.19,4.948-6.75,4.948c-2.07,0-3.9-0.448-5.07-1.05L43.993,39.458z"/>
<rect x="64.108" y="22.688" fill="#FFFFFF" width="5.431" height="21.329"/>
<path fill="#FFFFFF" d="M84.999,40.418c0,1.47,0.09,2.85,0.239,3.6H80.35l-0.271-1.29H79.96c-1.021,1.17-2.49,1.62-4.08,1.62
	c-3.029,0-4.889-2.189-4.889-4.648c0-3.962,3.567-5.73,8.577-5.73V33.85c0-0.601-0.448-1.261-2.43-1.261
	c-1.559,0-3.18,0.54-4.17,1.08l-0.93-3.391c0.93-0.51,3.061-1.35,6.119-1.35c5.07,0,6.84,2.819,6.84,6.51L84.999,40.418
	L84.999,40.418z M79.75,37.269c-2.222,0-3.451,0.601-3.451,1.92c0,0.931,0.6,1.409,1.531,1.409c0.778,0,1.59-0.54,1.858-1.35
	c0.062-0.24,0.062-0.512,0.062-0.78V37.269z"/>
<path fill="#FFFFFF" d="M96.25,34.058v7.789c0,0.854,0.028,1.709,0.057,2.171h-2.256l-0.098-0.925h-0.027
	c-0.449,0.771-1.289,1.079-2.074,1.079c-1.596,0-2.926-1.387-2.926-3.544c-0.016-2.325,1.455-3.656,3.08-3.656
	c0.758,0,1.373,0.225,1.682,0.672h0.027v-3.586H96.25L96.25,34.058z M93.715,40.109c0-0.099,0-0.224-0.014-0.321
	c-0.099-0.489-0.462-0.883-0.994-0.883c-0.84,0-1.22,0.757-1.22,1.652c0,1.064,0.519,1.611,1.205,1.611
	c0.519,0,0.896-0.365,0.98-0.826c0.041-0.141,0.041-0.295,0.041-0.462L93.715,40.109L93.715,40.109z"/>
<path fill="#FFFFFF" d="M99.034,44.172c-0.841,0-1.429-0.604-1.429-1.472c0-0.867,0.603-1.472,1.441-1.472
	c0.854,0,1.43,0.589,1.443,1.472c0,0.868-0.574,1.472-1.443,1.472H99.034z"/>
<path fill="#FFFFFF" d="M104.971,44.172c-2.059,0-3.656-1.303-3.656-3.544c0-2.199,1.443-3.656,3.797-3.656
	c2.156,0,3.586,1.457,3.586,3.529c0,2.508-1.793,3.671-3.713,3.671H104.971z M105.042,42.393c0.686,0,1.051-0.714,1.051-1.821
	c0-0.951-0.309-1.819-1.051-1.819c-0.842,0-1.121,0.91-1.121,1.819c0,1.037,0.336,1.821,1.106,1.821H105.042z"/>
<path fill="#FFFFFF" d="M110.696,44.172c-0.84,0-1.428-0.604-1.428-1.472c0-0.867,0.603-1.472,1.441-1.472
	c0.854,0,1.43,0.589,1.442,1.472c0,0.868-0.573,1.472-1.442,1.472H110.696z"/>
<path fill="#FFFFFF" d="M116.633,44.172c-2.059,0-3.656-1.303-3.656-3.544c0-2.199,1.443-3.656,3.797-3.656
	c2.156,0,3.586,1.457,3.586,3.529c0,2.508-1.793,3.671-3.713,3.671H116.633z M116.704,42.393c0.686,0,1.051-0.714,1.051-1.821
	c0-0.951-0.31-1.819-1.051-1.819c-0.843,0-1.121,0.91-1.121,1.819c0,1.037,0.336,1.821,1.106,1.821H116.704z"/>
<path fill="#FFFFFF" d="M122.36,44.172c-0.842,0-1.43-0.604-1.43-1.472c0-0.867,0.604-1.472,1.443-1.472
	c0.854,0,1.428,0.589,1.442,1.472c0,0.868-0.573,1.472-1.442,1.472H122.36z"/>
<path fill="#058387" d="M59.368,5.094c-0.843-2.193-2.309-3.517-3.221-4.043c-0.881-0.534-1.272-0.909-1.456-1.014
	c-0.181-0.105-0.344,0.027-0.45,0.209c-0.108,0.182-0.663,1.513-0.915,2.519c-0.254,1.006-0.685,2.85,0.063,4.52
	c0.792,1.688,1.534,2.42,2.279,3.25c0.736,0.906,1.833,2.095,2.044,2.643c0.212,0.549,0.207,0.726,0.052,0.785
	c-0.124,0.047-0.341-0.149-0.904-0.877c-0.552-0.698-2.714-2.909-5.409-4.566c-2.735-1.573-5.941-1.88-8.017-1.084
	c-2.135,0.82-3.818,2.167-5.049,3.687c-1.257,1.532-1.633,2.587-2.332,3.448c-0.209,0.289-0.127,0.504-0.081,0.625
	c0.047,0.121,0.291,0.203,1.419,0.363c1.117,0.131,3.049,0.266,5.153-0.543c2.104-0.808,3.871-1.661,5.697-2.362
	c4.086-1.568,7.063-0.475,8.094,2.207c0.081,0.214,0.192,0.693-0.085,0.521c-0.323-0.191-2.2-1.567-5.079-0.463
	c-2.878,1.104-4.767,4.697-5.177,7.512c-0.412,2.816-0.256,3.593-0.161,3.839c0.094,0.242,1.203,0.168,2.562-0.356
	c1.363-0.521,2.438-1.981,3.373-3.425c1.023-1.408,1.046-1.347,1.046-1.347s1.478-2.35,2.716-2.824
	c1.27-0.487,2.014,0.064,2.166,0.46c0.843,2.196,0.375,5.693,0.402,5.859c0.015,0.134,0.363,0.209,0.435,0.113
	c0.106-0.18,0.694-0.687,0.942-0.782c0.063-0.022,0.17-0.202,0.146-0.265c0.003-0.736-0.442-4.761-0.688-5.958
	c-0.228-1.242-0.213-3.239,0.117-4.137c0.363-0.906,0.611-3.312,0.662-4.659C59.825,7.577,59.907,6.496,59.368,5.094"/>
<path fill="#058387" d="M59.096,27.843c-1.682,0-2.734-1.165-2.734-2.607c0-1.53,1.081-2.637,2.764-2.637s2.733,1.105,2.764,2.637
	c0,1.442-1.081,2.607-2.764,2.607H59.096z"/>
</svg>
